<svg width="201" height="84" viewBox="0 0 201 84" fill="none" xmlns="http://www.w3.org/2000/svg">
<path d="M117.812 67H112.031V26.25H95.3438V67H89.5625V21.5H117.812V67ZM157.844 53.3125C157.573 55.4167 157.031 57.3542 156.219 59.125C155.406 60.875 154.354 62.375 153.062 63.625C151.75 64.8958 150.198 65.8854 148.406 66.5938C146.635 67.2812 144.656 67.625 142.469 67.625C140.594 67.625 138.885 67.3646 137.344 66.8438C135.823 66.3021 134.469 65.5625 133.281 64.625C132.073 63.6875 131.031 62.5833 130.156 61.3125C129.302 60.0417 128.594 58.6562 128.031 57.1562C127.448 55.6562 127.01 54.0833 126.719 52.4375C126.448 50.7917 126.302 49.125 126.281 47.4375V41.0938C126.302 39.4062 126.448 37.7396 126.719 36.0938C127.01 34.4479 127.448 32.875 128.031 31.375C128.594 29.875 129.302 28.4896 130.156 27.2188C131.031 25.9271 132.073 24.8125 133.281 23.875C134.469 22.9375 135.823 22.2083 137.344 21.6875C138.865 21.1458 140.573 20.875 142.469 20.875C144.74 20.875 146.771 21.2292 148.562 21.9375C150.354 22.625 151.896 23.6042 153.188 24.875C154.479 26.1667 155.51 27.7083 156.281 29.5C157.073 31.2917 157.594 33.2708 157.844 35.4375H152.062C151.875 34.0625 151.552 32.7812 151.094 31.5938C150.635 30.4062 150.021 29.3646 149.25 28.4688C148.479 27.5729 147.531 26.875 146.406 26.375C145.302 25.8542 143.99 25.5938 142.469 25.5938C141.094 25.5938 139.875 25.8229 138.812 26.2812C137.771 26.7188 136.875 27.3229 136.125 28.0938C135.354 28.8646 134.708 29.7604 134.188 30.7812C133.688 31.8021 133.281 32.8854 132.969 34.0312C132.656 35.1771 132.427 36.3542 132.281 37.5625C132.156 38.75 132.094 39.9062 132.094 41.0312V47.4375C132.094 48.5625 132.156 49.7292 132.281 50.9375C132.427 52.125 132.656 53.2917 132.969 54.4375C133.281 55.6042 133.688 56.6979 134.188 57.7188C134.688 58.7396 135.323 59.6354 136.094 60.4062C136.865 61.1979 137.771 61.8229 138.812 62.2812C139.854 62.7188 141.073 62.9375 142.469 62.9375C143.99 62.9375 145.302 62.6979 146.406 62.2188C147.531 61.7396 148.479 61.0625 149.25 60.1875C150.021 59.3333 150.635 58.3229 151.094 57.1562C151.552 55.9688 151.875 54.6875 152.062 53.3125H157.844ZM194.688 67H188.906V26.25H172.219V67H166.438V21.5H194.688V67Z" fill="#FF6200"/>
<path d="M65.5 63.9535V24.8837L31.7495 16L1.5 24.8837V61.7674L34.9238 72L65.5 63.9535Z" fill="#FF986C"/>
<path d="M34.1769 71.0698V33.7209M34.1769 33.7209L1.68672 25.0469M34.1769 33.7209L65.4066 25.3833" stroke="#D2754D" stroke-width="4"/>
<path d="M20.2663 57.4888V67.4888L14.9909 65.9068V55.9068L20.2663 57.4888ZM51.2155 21.0699L20.2663 29.5347V39.6744L14.9909 37.9996V27.2555L44.6335 19.3023L51.2155 21.0699Z" fill="#FF5900"/>
<path d="M20.2663 57.4888V67.4888L14.9909 65.9068V55.9068L20.2663 57.4888ZM51.2155 21.0699L20.2663 29.5347V39.6744L14.9909 37.9996V27.2555L44.6335 19.3023L51.2155 21.0699Z" stroke="black"/>
<path d="M65.5 63.9535V24.8837L31.7495 16L1.5 24.8837V61.7674L34.9238 72L65.5 63.9535Z" stroke="black" stroke-width="3"/>
<path d="M39.5919 58.4724V64.5239C39.5919 65.506 40.52 66.2232 41.4703 65.9754L54.4703 62.5864C55.1309 62.4142 55.5919 61.8176 55.5919 61.1349V55.3658C55.5919 54.3964 54.6862 53.6816 53.7433 53.9069L40.7433 57.0135C40.0682 57.1748 39.5919 57.7783 39.5919 58.4724Z" fill="#FF5900"/>
</svg>
