<svg width="106" height="47" viewBox="0 0 106 47" fill="none" xmlns="http://www.w3.org/2000/svg">
<path d="M28.25 46.125H22.4688V5.375H5.78125V46.125H0V0.625H28.25V46.125ZM68.2812 32.4375C68.0104 34.5417 67.4688 36.4792 66.6562 38.25C65.8438 40 64.7917 41.5 63.5 42.75C62.1875 44.0208 60.6354 45.0104 58.8438 45.7188C57.0729 46.4062 55.0938 46.75 52.9062 46.75C51.0312 46.75 49.3229 46.4896 47.7812 45.9688C46.2604 45.4271 44.9062 44.6875 43.7188 43.75C42.5104 42.8125 41.4688 41.7083 40.5938 40.4375C39.7396 39.1667 39.0312 37.7812 38.4688 36.2812C37.8854 34.7812 37.4479 33.2083 37.1562 31.5625C36.8854 29.9167 36.7396 28.25 36.7188 26.5625V20.2188C36.7396 18.5312 36.8854 16.8646 37.1562 15.2188C37.4479 13.5729 37.8854 12 38.4688 10.5C39.0312 9 39.7396 7.61458 40.5938 6.34375C41.4688 5.05208 42.5104 3.9375 43.7188 3C44.9062 2.0625 46.2604 1.33333 47.7812 0.8125C49.3021 0.270833 51.0104 0 52.9062 0C55.1771 0 57.2083 0.354167 59 1.0625C60.7917 1.75 62.3333 2.72917 63.625 4C64.9167 5.29167 65.9479 6.83333 66.7188 8.625C67.5104 10.4167 68.0312 12.3958 68.2812 14.5625H62.5C62.3125 13.1875 61.9896 11.9062 61.5312 10.7188C61.0729 9.53125 60.4583 8.48958 59.6875 7.59375C58.9167 6.69792 57.9688 6 56.8438 5.5C55.7396 4.97917 54.4271 4.71875 52.9062 4.71875C51.5312 4.71875 50.3125 4.94792 49.25 5.40625C48.2083 5.84375 47.3125 6.44792 46.5625 7.21875C45.7917 7.98958 45.1458 8.88542 44.625 9.90625C44.125 10.9271 43.7188 12.0104 43.4062 13.1562C43.0938 14.3021 42.8646 15.4792 42.7188 16.6875C42.5938 17.875 42.5312 19.0312 42.5312 20.1562V26.5625C42.5312 27.6875 42.5938 28.8542 42.7188 30.0625C42.8646 31.25 43.0938 32.4167 43.4062 33.5625C43.7188 34.7292 44.125 35.8229 44.625 36.8438C45.125 37.8646 45.7604 38.7604 46.5312 39.5312C47.3021 40.3229 48.2083 40.9479 49.25 41.4062C50.2917 41.8438 51.5104 42.0625 52.9062 42.0625C54.4271 42.0625 55.7396 41.8229 56.8438 41.3438C57.9688 40.8646 58.9167 40.1875 59.6875 39.3125C60.4583 38.4583 61.0729 37.4479 61.5312 36.2812C61.9896 35.0938 62.3125 33.8125 62.5 32.4375H68.2812ZM105.125 46.125H99.3438V5.375H82.6562V46.125H76.875V0.625H105.125V46.125Z" fill="#FF6200"/>
</svg>
